# xmcd
#
# Track frame offsets: 
#        150
#        11044
#        23291
#        36934
#        48031
#        62582
#        75797
#        88864
#        102753
#        115543
#        129640
#        142352
#        153346
#        166107
#        181262
#        194032
#        207589
#        219561
#        231947
#        244658
#        256636
#        269532
#        282429
#
# Disc length: 3935 seconds
#
# Revision: 0
# Processed by: cddbd v1.5.2PL0 Copyright (c) Steve Scherf et al.
# Submitted via: ExactAudioCopy v0.99pb5
#
DISCID=3a0f5d17
DTITLE=Gene Autry - That's How I Got My Start
DYEAR=2001
DGENRE=Country
TTITLE0=Wildcat Mama Blues
TTITLE1=High Steppin' Mama Blues
TTITLE2=Panhandle Pete
TTITLE3=Rheumatism Blues
TTITLE4=The Life Of Jimmie Rogers
TTITLE5=I'll Always Be A Rambler
TTITLE6=You're The Only Star In My Blue Heaven
TTITLE7=Rainbow Valley
TTITLE8=That Silver Haired Daddy Of Mine
TTITLE9=That's How I Got My Start
TTITLE10=Way Out West In Texas
TTITLE11=Dust
TTITLE12=Rhythm Of The Hoofbeats
TTITLE13=The Last Round-Up
TTITLE14=The Yellow Rose Of Texas
TTITLE15=Pistol Packin' Papa
TTITLE16=Dixie Cannon Ball
TTITLE17=Gallivanatin' Galveston Gal
TTITLE18=Oklahoma Hills
TTITLE19=Back In The Saddle Again
TTITLE20=My Rose Of The Prairie
TTITLE21=My Star Of The Sky
TTITLE22=At Mail Call Today
EXTD=
EXTT0=
EXTT1=
EXTT2=
EXTT3=
EXTT4=
EXTT5=
EXTT6=
EXTT7=
EXTT8=
EXTT9=
EXTT10=
EXTT11=
EXTT12=
EXTT13=
EXTT14=
EXTT15=
EXTT16=
EXTT17=
EXTT18=
EXTT19=
EXTT20=
EXTT21=
EXTT22=
PLAYORDER=
